<svg width="282" height="282" viewBox="0 0 282 282" fill="none" xmlns="http://www.w3.org/2000/svg">
<circle cx="141" cy="141" r="140.5" fill="url(#paint0_linear_73_2807)" fill-opacity="0.1" stroke="url(#paint1_linear_73_2807)"/>
<path d="M169.278 200.196C166.716 200.196 164.812 198.208 164.812 194.876C164.812 191.572 166.758 189.556 169.362 189.556C170.608 189.556 171.574 190.158 172.176 190.816L171.462 191.656C170.93 191.082 170.244 190.69 169.376 190.69C167.43 190.69 166.142 192.286 166.142 194.848C166.142 197.438 167.374 199.048 169.334 199.048C170.3 199.048 171.056 198.628 171.714 197.9L172.414 198.712C171.602 199.664 170.608 200.196 169.278 200.196ZM176.75 200.196C174.874 200.196 173.222 198.726 173.222 196.22C173.222 193.672 174.874 192.216 176.75 192.216C178.612 192.216 180.264 193.672 180.264 196.22C180.264 198.726 178.612 200.196 176.75 200.196ZM176.75 199.132C178.066 199.132 178.948 197.956 178.948 196.22C178.948 194.456 178.066 193.28 176.75 193.28C175.42 193.28 174.538 194.456 174.538 196.22C174.538 197.956 175.42 199.132 176.75 199.132ZM181.866 200V192.398H182.902L183.028 193.504H183.07C183.784 192.79 184.568 192.216 185.618 192.216C187.214 192.216 187.942 193.252 187.942 195.184V200H186.654V195.352C186.654 193.924 186.22 193.322 185.212 193.322C184.442 193.322 183.896 193.728 183.14 194.484V200H181.866ZM192.371 200.196C190.747 200.196 190.215 199.174 190.215 197.662V193.434H189.081V192.482L190.271 192.398L190.411 190.256H191.489V192.398H193.547V193.434H191.489V197.69C191.489 198.614 191.783 199.16 192.665 199.16C192.931 199.16 193.281 199.048 193.519 198.95L193.771 199.902C193.351 200.056 192.847 200.196 192.371 200.196ZM196.215 200.196C194.941 200.196 193.989 199.398 193.989 198.026C193.989 196.374 195.417 195.548 198.651 195.184C198.651 194.204 198.343 193.266 197.097 193.266C196.201 193.266 195.403 193.686 194.815 194.092L194.311 193.196C195.011 192.748 196.075 192.216 197.293 192.216C199.155 192.216 199.939 193.448 199.939 195.338V200H198.889L198.777 199.104H198.721C198.007 199.706 197.153 200.196 196.215 200.196ZM196.565 199.16C197.307 199.16 197.923 198.81 198.651 198.152V196.038C196.089 196.332 195.235 196.962 195.235 197.942C195.235 198.81 195.823 199.16 196.565 199.16ZM204.916 200.196C202.9 200.196 201.36 198.726 201.36 196.22C201.36 193.672 203.068 192.216 205.014 192.216C206.008 192.216 206.708 192.622 207.24 193.112L206.596 193.952C206.148 193.546 205.672 193.28 205.084 193.28C203.684 193.28 202.676 194.456 202.676 196.22C202.676 197.956 203.642 199.132 205.042 199.132C205.728 199.132 206.358 198.796 206.834 198.376L207.38 199.23C206.708 199.832 205.826 200.196 204.916 200.196ZM210.839 200.196C209.215 200.196 208.683 199.174 208.683 197.662V193.434H207.549V192.482L208.739 192.398L208.879 190.256H209.957V192.398H212.015V193.434H209.957V197.69C209.957 198.614 210.251 199.16 211.133 199.16C211.399 199.16 211.749 199.048 211.987 198.95L212.239 199.902C211.819 200.056 211.315 200.196 210.839 200.196ZM169.04 220.196C166.954 220.196 165.358 219.062 165.358 215.772V209.738H166.646V215.814C166.646 218.278 167.696 219.048 169.04 219.048C170.398 219.048 171.49 218.278 171.49 215.814V209.738H172.736V215.772C172.736 219.062 171.14 220.196 169.04 220.196ZM176.85 220.196C175.772 220.196 174.722 219.734 174.008 219.146L174.638 218.292C175.296 218.824 175.968 219.202 176.878 219.202C177.886 219.202 178.39 218.67 178.39 217.998C178.39 217.228 177.48 216.878 176.64 216.57C175.59 216.164 174.428 215.66 174.428 214.358C174.428 213.154 175.394 212.216 177.046 212.216C177.984 212.216 178.824 212.594 179.412 213.07L178.796 213.882C178.278 213.504 177.732 213.21 177.06 213.21C176.094 213.21 175.66 213.714 175.66 214.302C175.66 215.03 176.43 215.31 177.298 215.618C178.404 216.038 179.608 216.486 179.608 217.928C179.608 219.174 178.642 220.196 176.85 220.196Z" fill="white"/>
<circle cx="170.5" cy="149.5" r="17.5" fill="url(#paint2_linear_73_2807)"/>
<g filter="url(#filter0_b_73_2807)">
<ellipse cx="142" cy="148.812" rx="33" ry="33.812" fill="url(#paint3_linear_73_2807)" fill-opacity="0.54"/>
<path d="M174.5 148.812C174.5 167.221 159.938 182.124 142 182.124C124.062 182.124 109.5 167.221 109.5 148.812C109.5 130.403 124.062 115.5 142 115.5C159.938 115.5 174.5 130.403 174.5 148.812Z" stroke="url(#paint4_linear_73_2807)"/>
</g>
<path d="M157 130.937L121 148.014L137.615 151.572M157 130.937L143.154 167.937L137.615 151.572M157 130.937L137.615 151.572" stroke="white" stroke-linecap="round" stroke-linejoin="round"/>
<defs>
<filter id="filter0_b_73_2807" x="90" y="96" width="104" height="105.624" filterUnits="userSpaceOnUse" color-interpolation-filters="sRGB">
<feFlood flood-opacity="0" result="BackgroundImageFix"/>
<feGaussianBlur in="BackgroundImageFix" stdDeviation="9.5"/>
<feComposite in2="SourceAlpha" operator="in" result="effect1_backgroundBlur_73_2807"/>
<feBlend mode="normal" in="SourceGraphic" in2="effect1_backgroundBlur_73_2807" result="shape"/>
</filter>
<linearGradient id="paint0_linear_73_2807" x1="141" y1="0" x2="141" y2="282" gradientUnits="userSpaceOnUse">
<stop stop-color="white"/>
<stop offset="1" stop-color="white" stop-opacity="0"/>
</linearGradient>
<linearGradient id="paint1_linear_73_2807" x1="32" y1="-54.5" x2="192.5" y2="325" gradientUnits="userSpaceOnUse">
<stop stop-color="white"/>
<stop offset="1" stop-color="white" stop-opacity="0"/>
</linearGradient>
<linearGradient id="paint2_linear_73_2807" x1="171.97" y1="130.13" x2="155.106" y2="162.882" gradientUnits="userSpaceOnUse">
<stop stop-color="#3284FF"/>
<stop offset="1" stop-color="#1334E2"/>
</linearGradient>
<linearGradient id="paint3_linear_73_2807" x1="120" y1="63.7697" x2="150.875" y2="181.752" gradientUnits="userSpaceOnUse">
<stop stop-color="white"/>
<stop offset="1" stop-color="white" stop-opacity="0"/>
</linearGradient>
<linearGradient id="paint4_linear_73_2807" x1="142" y1="115" x2="142" y2="182.624" gradientUnits="userSpaceOnUse">
<stop stop-color="white"/>
<stop offset="0.880208" stop-color="white" stop-opacity="0"/>
</linearGradient>
</defs>
</svg>
